<svg xmlns="http://www.w3.org/2000/svg" xmlns:xlink="http://www.w3.org/1999/xlink" version="1.1" x="0px" y="0px" viewBox="0 0 100 125" style="enable-background:new 0 0 100 100;" xml:space="preserve"><path d="M62.3,88.5h-2.7v-2.8H40.5v2.8h-2.7c-1.9,0-3.3,1.5-3.3,3.2c0,1.8,1.5,3.2,3.3,3.2h24.6c1.9,0,3.3-1.5,3.3-3.2  C65.6,89.9,64.1,88.5,62.3,88.5z"/><path d="M79.9,35.5h-0.2c-1.2,2.2-3.2,3.8-5.5,4.5h5.7c0.2,0,0.5,0.2,0.5,0.6l-0.1,34.3H19.8V40.6c0-0.3,0.2-0.6,0.5-0.6h4.2  c-1.5-1.2-2.8-2.8-3.7-4.5h-0.6c-2.7,0-5,2.3-5,5.1v38.1c0,2.8,2.3,5.1,5,5.1h59.6c2.7,0,5-2.3,5-5.1V40.6  C84.9,37.8,82.6,35.5,79.9,35.5z M50,81.3c-1.1,0-2.1-1-2.1-2.1s1-2.1,2.1-2.1s2.1,1,2.1,2.1C52.1,80.4,51.2,81.3,50,81.3z"/><path d="M76.7,54.9v-8.2l-6.1-6.1c0-0.1,0-0.2,0.1-0.3c0-0.2,0.1-0.4,0.1-0.6c0.1,0.1,0.3,0.1,0.5,0.1c0.1,0,0.1,0,0.2,0  s0.2,0,0.3,0h0.1c2.9,0,5.5-1.6,7-4.1c0.8-1.3,1.2-2.7,1.3-4.4c0.1-2.4-0.8-4.6-2.4-6.1c-0.2-0.2-0.4-0.3-0.6-0.5  c-0.1-0.1-0.2-0.2-0.3-0.2c-0.2-0.2-0.4-0.3-0.7-0.4c-0.2-0.1-0.5-0.3-0.7-0.4s-0.5-0.2-0.7-0.3c-0.9-0.3-1.8-0.5-2.8-0.5  c-0.3,0-0.7,0.2-1.1,0.2c-0.2-1.8-0.6-3.6-1.2-5.3c-0.2-0.6-0.5-1.1-0.7-1.6c-0.5-1.1-1.2-2.1-1.9-3c-0.4-0.5-0.7-0.9-1.1-1.4  c-1-1.1-2.1-2.1-3.3-2.9c-0.5-0.3-1-0.7-1.5-1s-1-0.6-1.6-0.8c-0.3-0.1-0.5-0.2-0.8-0.4C58,6.3,57.4,6.1,56.9,6  c-1.7-0.5-3.6-0.8-5.5-0.8c-7.1,0-13.4,4.2-16.8,10.1h-1.1C26,15.3,20,21.2,20,28.8c0,2.4,0.6,4.7,1.7,6.6c1,1.9,2.4,3.5,4.1,4.6  c0.8,0.6,1.8,1.1,2.7,1.4l-5,5.1v8.2c-1.6,0.5-2.7,2-2.7,3.8c0,0.7,0.2,1.3,0.5,1.9c0.1,0.2,0.2,0.3,0.3,0.5c0.7,1,1.9,1.6,3.1,1.6  c2.2,0,4-1.8,4-4c0-1.8-1.2-3.2-2.8-3.7v-7.2l5.3-5.3c0.7,0.1,1.5,0.2,2.3,0.2c0.9,0,1.6,0,2.4-0.2c1,1,2.1,1.5,3.4,1.5H41l-6.1,6.1  v14.8c-1.6,0.5-2.7,2-2.7,3.8c0,1.1,0.4,2.1,1.2,2.8l0.1,0.1c0.7,0.6,1.6,1,2.7,1c2.2,0,4-1.8,4-4c0-1.8-1.2-3.2-2.8-3.7V50.9  l7.1-7.1h4.4v10c-1.6,0.5-2.7,2-2.7,3.8c0,1.1,0.4,2.1,1.2,2.8l0.1,0.1c0.3,0.2,0.5,0.4,0.9,0.6c0.2,0.1,0.4,0.2,0.6,0.2  c0.4,0.1,0.8,0.2,1.2,0.2c2.2,0,4-1.8,4-4c0-1.8-1.2-3.2-2.8-3.7v-10h0.1h4.3l7.1,7v13.8c-1.6,0.5-2.7,2-2.7,3.8c0,0.1,0,0.3,0,0.4  c0,0.3,0.1,0.5,0.2,0.8c0.1,0.3,0.2,0.5,0.3,0.7c0,0.1,0.1,0.2,0.1,0.3c0.1,0.2,0.2,0.3,0.3,0.5c0.1,0.1,0.1,0.1,0.2,0.2  c0.7,0.7,1.7,1.2,2.8,1.2c2.2,0,4-1.8,4-4c0-1.8-1.2-3.2-2.8-3.8V49.9l-6.1-6H66c1.3,0,2.4-0.5,3.2-1.3l5,5v7.2  c-1.6,0.5-2.7,2-2.7,3.8c0,0.8,0.3,1.6,0.7,2.2c0.2,0.2,0.3,0.4,0.5,0.6c0.1,0.1,0.2,0.2,0.3,0.3c0.2,0.2,0.4,0.3,0.6,0.4  c0.6,0.3,1.2,0.5,1.9,0.5c2.2,0,4-1.8,4-4C79.5,56.8,78.3,55.4,76.7,54.9z M40.9,30.8h-2.2c-0.4,0-0.8-0.4-0.8-0.8  c0-0.4,0.4-0.8,0.8-0.8h2.2V30.8z M40.9,26.2h-2.2c-0.4,0-0.9-0.4-0.8-0.9c0-0.4,0.4-0.8,0.8-0.8h2.2V26.2z M40.9,21.5h-2.2  c-0.4,0-0.9-0.4-0.8-0.9c0-0.4,0.4-0.8,0.8-0.8h2.2V21.5z M54,14.2c0-0.4,0.4-0.8,0.8-0.8c0.4,0,0.8,0.4,0.8,0.8v2.2H54V14.2z   M49.4,14.2c0-0.4,0.4-0.8,0.8-0.8c0.4,0,0.8,0.4,0.8,0.8v2.2h-1.6V14.2z M44.8,14.2c0-0.4,0.4-0.8,0.8-0.8c0.4,0,0.8,0.4,0.8,0.8  v2.2h-1.6V14.2z M46,36.7c0,0.4-0.4,0.8-0.8,0.8c-0.4,0-0.8-0.4-0.8-0.8v-2.2H46V36.7z M50.6,36.7c0,0.4-0.4,0.8-0.8,0.8  c-0.4,0-0.8-0.4-0.8-0.8v-2.2h1.6V36.7z M55.2,36.7c0,0.4-0.4,0.8-0.8,0.8c-0.4,0-0.8-0.4-0.8-0.8v-2.2h1.6V36.7z M57.8,31.2  c-0.3,1-1.1,1.8-2.1,2.2H44.3c-1.1-0.4-1.9-1.1-2.2-2.2V19.8c0.4-1.1,1.1-1.9,2.2-2.2h11.3c1.1,0.4,1.9,1.1,2.2,2.2V31.2z   M61.3,31.1h-2.2v-1.6h2.2c0.4,0,0.9,0.4,0.8,0.9C62,30.8,61.7,31.1,61.3,31.1z M61.3,26.5h-2.2v-1.6h2.2c0.4,0,0.9,0.4,0.8,0.9  C62,26.1,61.7,26.5,61.3,26.5z M61.3,21.8h-2.2v-1.6h2.2c0.4,0,0.8,0.4,0.8,0.8C62,21.5,61.7,21.8,61.3,21.8z"/><text x="0" y="115" fill="#000000" font-size="5px" font-weight="bold" font-family="'Helvetica Neue', Helvetica, Arial-Unicode, Arial, Sans-serif">Created by Round Icons</text><text x="0" y="120" fill="#000000" font-size="5px" font-weight="bold" font-family="'Helvetica Neue', Helvetica, Arial-Unicode, Arial, Sans-serif">from the Noun Project</text></svg>